<?xml version="1.0" encoding="utf-8"?>
<svg width="27px" height="27px" viewBox="0 0 27 27" version="1.1" xmlns:xlink="http://www.w3.org/1999/xlink" xmlns="http://www.w3.org/2000/svg">
  <desc>Created with Lunacy</desc>
  <defs>
    <path d="M0 0L27 0L27 27L0 27L0 0Z" id="path_1" />
    <clipPath id="mask_1">
      <use xlink:href="#path_1" />
    </clipPath>
  </defs>
  <g id="codewars">
    <path d="M0 0L27 0L27 27L0 27L0 0Z" id="Background" fill="none" stroke="none" />
    <g clip-path="url(#mask_1)">
      <path d="M0.599345 11.634L0.676681 11.6727L0.676681 11.663C0.792682 11.721 0.83135 11.8564 0.792682 11.9724C0.754015 12.1077 0.734681 12.2431 0.734681 12.3784L0.754015 13.0551C0.763683 13.1517 0.802349 13.2484 0.879684 13.3257C0.928018 13.3837 0.937686 13.4901 0.879684 13.5577L0.783015 13.6737C0.783015 13.7221 0.802349 13.7994 0.879684 13.8188C0.976353 13.8478 1.07302 13.9154 1.16969 14.0121L1.24703 14.1088C1.30503 14.2248 1.26636 14.3504 1.16969 14.4181L1.10202 14.4664C0.918352 14.5728 0.83135 14.7951 0.889352 15.0175C0.947353 15.2688 0.995687 15.5201 1.01502 15.7715L1.04402 16.1195C1.04402 16.2741 1.12136 16.4191 1.23736 16.5352C1.35336 16.6415 1.4017 16.7865 1.4017 16.9508L1.38236 17.3762C1.38236 17.5695 1.4597 17.7532 1.59503 17.8788C1.74004 18.0045 1.90437 18.1012 2.12671 18.1689C2.31038 18.2172 2.44572 18.3912 2.46505 18.5845L2.46505 18.6619C2.47472 18.8359 2.52305 19.0002 2.60039 19.1452C2.67772 19.2999 2.77439 19.4255 2.96773 19.5609C3.14173 19.6769 3.33507 19.7542 3.52841 19.7929L3.79908 19.8509C4.01175 19.8896 4.18575 20.0152 4.30176 20.1796C4.44676 20.3632 4.60143 20.5082 4.83343 20.6049C5.06544 20.7112 5.29744 20.7499 5.54878 20.7306L5.68412 20.7306C5.83879 20.7016 5.99346 20.6822 6.1868 20.6049C6.28346 20.5662 6.3898 20.6049 6.4478 20.7016C6.51547 20.7982 6.61214 20.8756 6.70881 20.8949L6.93115 20.9432C6.98915 20.9529 7.02781 20.9722 7.08581 20.9722L7.66583 21.0689C7.8495 21.0883 8.0235 21.1656 8.1685 21.2623L8.29417 21.3589L8.50685 21.5136L8.64218 21.6296L9.02886 21.9969C9.14486 22.1419 9.31886 22.2096 9.5122 22.2386L9.82154 22.2386C9.95688 22.2579 10.0632 22.3353 10.1115 22.4319C10.1792 22.5383 10.2855 22.6156 10.4016 22.6543L10.6625 22.7124C10.8365 22.7607 11.0105 22.78 11.2039 22.7607L11.3295 22.7414C11.4262 22.7317 11.5229 22.751 11.6196 22.7994C11.6969 22.8477 11.7936 22.896 11.8902 22.896L12.0449 22.9444C12.2479 22.9927 12.4606 22.9927 12.6539 22.9444L12.9439 22.8477C13.0696 22.809 13.1856 22.7317 13.2823 22.5964C13.3403 22.4997 13.4756 22.461 13.5723 22.4997C13.6979 22.5577 13.8236 22.5964 13.9589 22.5964L14.1136 22.6157C14.3166 22.6253 14.5389 22.606 14.7323 22.5577C14.9256 22.4997 15.0706 22.3837 15.1673 22.2097L15.293 21.997L15.351 21.881L15.409 21.7843C15.4766 21.6877 15.5733 21.6296 15.67 21.6296L15.8053 21.6296C16.0083 21.6296 16.2113 21.6103 16.4433 21.533C16.6367 21.4846 16.801 21.359 16.9267 21.1946L16.9653 21.1366C17.062 21.011 17.1393 20.866 17.236 20.721L17.2843 20.6629C17.323 20.5663 17.3617 20.4599 17.381 20.3439C17.3907 20.2376 17.41 20.1119 17.439 20.0153C17.468 19.8993 17.555 19.8219 17.729 19.8219C17.874 19.8219 18.0384 19.7446 18.164 19.6479L18.2317 19.5899C18.3574 19.4642 18.4734 19.3192 18.5894 19.1259C18.6474 19.0292 18.7731 18.9712 18.8987 19.0292C18.9954 19.0679 19.0921 18.9906 19.1114 18.8746C19.1501 18.7392 19.2081 18.6232 19.3047 18.5266C19.3917 18.4299 19.4594 18.3236 19.5271 18.1689C19.5851 18.0529 19.7107 17.9562 19.8461 17.9562L20.3681 17.9562C20.5131 17.9562 20.6484 17.8595 20.6871 17.6855C20.7258 17.5502 20.8031 17.4149 20.8998 17.2989C20.9868 17.2022 21.1028 17.1055 21.2381 17.0089C21.3734 16.9509 21.4991 16.8445 21.5958 16.7189L21.7408 16.5255C21.7988 16.4675 21.8374 16.3708 21.8374 16.2742C21.8374 16.1872 21.8858 16.1002 21.9535 16.0615L22.0985 15.9648C22.2241 15.8972 22.3208 15.8005 22.3885 15.6748C22.4465 15.5588 22.5045 15.4332 22.5431 15.2882L22.5431 15.2108C22.5915 15.0368 22.5915 14.8435 22.5431 14.6501L22.5141 14.5148C22.4851 14.4278 22.5238 14.3312 22.5818 14.2731C22.6398 14.2055 22.7365 14.1475 22.8331 14.0508C22.9298 13.9638 23.0072 13.8575 23.0555 13.7415L23.0748 13.6738C23.1425 13.5191 23.1618 13.3258 23.1231 13.1324C23.1038 12.9681 23.0555 12.8134 22.9781 12.6781C22.9105 12.5331 22.9008 12.3688 22.9491 12.1948C23.0071 12.0304 23.0265 11.8467 23.0265 11.6727L23.0265 11.5954C23.0265 11.3731 22.9975 11.1507 22.9008 10.9381C22.8235 10.7157 22.6881 10.5514 22.4948 10.4257L22.3014 10.2807C22.2435 10.242 22.1951 10.1744 22.1758 10.1067C22.1468 10.0294 22.1468 9.95204 22.1468 9.87471L22.1468 9.65237C22.1468 9.45903 22.1371 9.2657 22.0984 9.02402C22.0791 8.86936 22.0018 8.71468 21.8664 8.61802C21.7698 8.52135 21.6731 8.38601 21.6731 8.23134L21.6441 8.009C21.6441 7.89299 21.6827 7.79633 21.7408 7.719C21.8181 7.64166 21.8374 7.52567 21.8374 7.42899L21.8374 7.23565C21.8278 7.09065 21.7601 6.96497 21.6151 6.86831C21.5281 6.80065 21.4797 6.67497 21.4991 6.57831L21.5184 6.38497L21.5861 5.93063C21.6054 5.76629 21.5377 5.62128 21.4121 5.52462L21.3154 5.45695C21.2478 5.41827 21.2188 5.34093 21.2188 5.24427C21.2284 5.16694 21.2188 5.07026 21.1801 4.9736L20.9287 4.41292L20.8321 4.21959C20.7644 4.09391 20.6484 3.99725 20.5131 3.99725L20.3197 3.97791C20.1651 3.97791 20.0491 3.84257 20.0491 3.6879C20.0587 3.49456 20.0007 3.31088 19.8847 3.17555L19.7881 3.04989C19.6914 2.95322 19.5851 2.85654 19.4594 2.75988C19.3434 2.69223 19.1984 2.66322 19.0534 2.66322L18.4541 2.66322C18.3187 2.66322 18.1834 2.59555 18.1254 2.46989C18.0287 2.33455 17.932 2.20887 17.8354 2.11221L17.787 2.06388C17.671 1.91888 17.4777 1.82222 17.2844 1.80288L16.8687 1.7352C16.6463 1.70622 16.424 1.7352 16.2113 1.80288C16.0083 1.88021 15.786 1.86087 15.5733 1.76421C15.351 1.66753 15.1286 1.62886 14.8966 1.62886L14.3263 1.62886C14.191 1.63852 14.0556 1.59985 13.959 1.50319L13.8623 1.40653C13.727 1.30986 13.611 1.16487 13.5143 1.01986C13.4176 0.884524 13.2726 0.778183 13.1083 0.729853L12.9536 0.681523C12.7989 0.633189 12.6829 0.488186 12.6636 0.294848C12.6539 0.265843 12.6443 0.246518 12.6153 0.227175C12.5766 0.188507 12.5089 0.198188 12.4799 0.246518C12.3833 0.362522 12.2383 0.420514 12.0933 0.381846L11.9482 0.343178C11.7356 0.294848 11.5229 0.265843 11.3102 0.265843L11.2136 0.265843C11.0492 0.265843 10.9042 0.227155 10.7302 0.130495C10.6142 0.0725031 10.4886 0.0241732 10.3629 0.00482959C10.2372 -0.0144947 10.1212 0.0241732 10.0245 0.120833L9.60887 0.555842L9.52187 0.604172C9.47353 0.671846 9.37686 0.69117 9.28019 0.652502L9.18353 0.604172C9.02886 0.536498 8.87419 0.488168 8.68085 0.488168L8.29418 0.459162C8.17817 0.4495 8.04284 0.468825 7.94617 0.49783C7.83016 0.526834 7.7335 0.594508 7.63683 0.691168L7.44349 0.923172C7.34682 1.03918 7.23082 1.13584 7.10515 1.21318L6.89248 1.33884L6.1578 1.75452C5.93546 1.89952 5.77112 2.12186 5.70345 2.4312C5.65512 2.68254 5.50045 2.87589 5.24911 3.01121C5.05577 3.10788 4.89144 3.23355 4.74643 3.39789C4.6111 3.54289 4.51443 3.75556 4.47576 4.02623C4.4371 4.24857 4.26309 4.39357 4.05042 4.39357L3.74108 4.39357C3.57674 4.39357 3.40274 4.41292 3.19007 4.49025C3.0934 4.53858 2.95806 4.48059 2.90006 4.36459L2.86139 4.29691C2.82273 4.21958 2.73573 4.17125 2.61006 4.17125C2.56172 4.19059 2.54239 4.25827 2.56172 4.31626L2.67772 4.5676C2.73572 4.70293 2.69706 4.87695 2.60039 4.97361L2.25238 5.36028L2.12671 5.52461C2.05904 5.60195 1.96237 5.62127 1.8077 5.56328C1.75937 5.57294 1.74003 5.60195 1.75937 5.69861C1.76904 5.75662 1.75937 5.83394 1.71104 5.89195C1.67237 5.96928 1.62403 6.01761 1.5757 6.06594L1.3437 6.23994C1.15036 6.41394 1.02469 6.65561 1.02469 6.91662L1.00536 7.24529C0.99569 7.3613 0.92802 7.45796 0.831352 7.48697C0.71535 7.52563 0.609014 7.58364 0.541346 7.6803L0.444677 7.80597C0.309341 7.96064 0.251339 8.17331 0.251339 8.38598L0.280339 8.50198C0.280339 8.69532 0.319007 8.88866 0.377009 9.08199L0.425342 9.23667C0.444676 9.314 0.43501 9.401 0.377009 9.46867C0.328673 9.53633 0.270673 9.604 0.232005 9.68134L0.15467 9.82635C0.0676678 9.99069 0.019334 10.1647 0.019334 10.358L0 10.4837C0 10.7254 0.058001 10.9574 0.193337 11.2087C0.290006 11.3924 0.425342 11.5374 0.599345 11.634ZM10.2469 10.3966C10.3145 10.329 10.3049 10.2033 10.2469 10.155C10.1502 10.0776 10.0825 9.99063 10.0245 9.89396L9.92785 9.73929C9.86018 9.61363 9.77318 9.50729 9.67651 9.41062L9.65717 9.39128C9.5605 9.31394 9.49284 9.21728 9.43484 9.10127C9.3865 9.00461 9.3865 8.90793 9.43484 8.81126L9.49284 8.71458C9.55084 8.61792 9.58951 8.48258 9.58951 8.36658L9.58951 8.32791C9.58951 8.23125 9.55084 8.13457 9.49284 8.0379C9.45417 7.96057 9.4155 7.86391 9.39617 7.76723L9.39617 7.70924C9.36717 7.59324 9.39617 7.46757 9.4735 7.3709C9.55084 7.24523 9.60884 7.12923 9.63784 6.98422L9.63784 6.9649C9.67651 6.86824 9.65718 6.74256 9.59917 6.64589C9.54117 6.54923 9.52184 6.45256 9.5605 6.33655L9.62817 6.14322C9.68618 5.96922 9.77318 5.81454 9.88918 5.67921L10.0245 5.5342L10.1212 5.41819L10.1792 5.36018C10.2372 5.30217 10.2469 5.20551 10.1985 5.12818C10.1502 5.03152 10.1212 4.93484 10.1405 4.83817L10.1599 4.70282C10.1889 4.50949 10.2565 4.31615 10.3822 4.16148L10.4209 4.12281C10.5659 3.92948 10.7495 3.80381 10.9622 3.73614L11.2232 3.63948C11.3392 3.60081 11.4165 3.47514 11.4165 3.34947C11.4165 3.1948 11.4649 3.05947 11.5519 2.9338L11.6002 2.88547C11.6969 2.72113 11.8129 2.55679 11.8902 2.38279L11.9579 2.25712C11.9772 2.22812 11.9869 2.18945 11.9869 2.16044C11.9869 1.99611 11.8902 1.8511 11.7355 1.84144L11.3102 1.81243C11.1484 1.79948 10.9865 1.80387 10.8276 1.80819C10.7492 1.81032 10.6715 1.81243 10.5949 1.81243L9.77318 1.90909C9.6475 1.90909 9.55084 2.00577 9.54117 2.1411C9.54117 2.27642 9.4445 2.39243 9.3285 2.4311L8.98049 2.52776L8.88382 2.55677L8.59382 2.65343C8.38115 2.7211 8.20714 2.87577 8.11047 3.08844L8.03314 3.2141C7.93647 3.42677 7.77213 3.60078 7.56913 3.72645C7.37579 3.85211 7.27912 4.05512 7.25979 4.28713L7.25979 4.38379C7.24045 4.57712 7.18245 4.77046 7.06645 4.9058L7.01812 4.98313C6.94078 5.07979 6.92145 5.20547 6.96978 5.31181C7.01812 5.42781 7.04712 5.55348 7.03745 5.67915L7.03745 6.19149C7.03745 6.32682 6.94078 6.44283 6.84411 6.48149C6.70878 6.52983 6.62178 6.63617 6.58311 6.7715L6.53477 6.96484C6.49611 7.15818 6.56378 7.35151 6.72811 7.46751C6.88278 7.58352 6.97945 7.75752 7.01812 7.97019L7.01812 8.14419C7.04712 8.33753 7.15345 8.53086 7.32746 8.62753C7.50146 8.74354 7.6368 8.91754 7.71413 9.11088L7.76247 9.26555C7.8398 9.47822 8.01381 9.60389 8.20714 9.62322L8.26514 9.62322C8.43915 9.62322 8.59382 9.71988 8.69049 9.87456C8.78715 10.0292 8.94183 10.1356 9.11583 10.1646L9.3865 10.2419C9.55084 10.2902 9.70551 10.3772 9.83118 10.5029L9.85051 10.5223C9.94718 10.5996 10.1018 10.5899 10.1889 10.4836L10.2565 10.4062L10.2469 10.3966ZM11.581 9.44939C11.5423 9.53639 11.4457 9.56539 11.349 9.50738L11.3297 9.48804L11.3103 9.46871C11.233 9.43005 11.175 9.33337 11.175 9.23671C11.1653 9.14004 11.1847 9.04338 11.2137 8.9467C11.2427 8.8307 11.233 8.73402 11.1847 8.63736L11.088 8.42469C11.0493 8.32802 11.0493 8.23135 11.1073 8.13469C11.1557 8.03802 11.204 7.93168 11.204 7.81568L11.233 7.50639C11.2427 7.40972 11.2233 7.31305 11.1653 7.21639C11.117 7.14871 11.1557 7.06172 11.2137 7.02305L11.233 7.02305L11.291 6.99404C11.4167 6.94571 11.5133 6.82971 11.552 6.6847L11.5907 6.52037C11.6197 6.37537 11.639 6.23036 11.6197 6.06603C11.6003 5.95002 11.697 5.8437 11.7937 5.82436L11.958 5.82436C12.103 5.82436 12.219 5.74702 12.3157 5.63102C12.4123 5.50535 12.48 5.37001 12.509 5.21534L12.5477 4.99301C12.5864 4.819 12.712 4.68367 12.8764 4.65466L12.9924 4.65466C13.1084 4.62566 13.2244 4.62566 13.3404 4.62566L13.379 4.60632C13.5047 4.60632 13.6304 4.55797 13.727 4.46131L13.727 4.44196C13.8237 4.37431 13.9204 4.30663 14.017 4.30663L14.0364 4.30663C14.133 4.28731 14.2201 4.23898 14.2974 4.17131C14.3651 4.10363 14.4617 4.0553 14.5584 4.0553L15.0804 4.0263C15.2157 4.00696 15.3511 3.92962 15.4477 3.83296L15.4961 3.77495C15.5541 3.70728 15.6314 3.68795 15.7281 3.72662C15.8151 3.76529 15.8924 3.80395 15.9698 3.86195L16.0664 3.92962C16.1921 4.02628 16.3468 4.09395 16.5111 4.09395L16.6658 4.11328C16.8591 4.1326 17.0524 4.10362 17.2458 4.03594L17.3618 3.99727C17.4585 3.96827 17.5648 4.02628 17.6131 4.12294C17.6518 4.23894 17.7098 4.35496 17.7775 4.45162L17.8161 4.49995C17.9031 4.61594 18.0288 4.69328 18.1738 4.71262L18.5798 4.71262C18.7151 4.71262 18.8215 4.80929 18.8698 4.93496C18.9085 5.07996 18.9665 5.22497 19.0631 5.32163L19.1598 5.41829C19.2565 5.54397 19.3918 5.63097 19.5465 5.6793L19.6238 5.6793C19.7011 5.7083 19.7398 5.7953 19.7205 5.87264L19.7205 5.92097C19.6721 6.01764 19.6721 6.11432 19.7205 6.21097L19.7398 6.25931C19.7978 6.38497 19.8558 6.52031 19.9331 6.64598L20.0008 6.80065C20.0491 6.87799 20.0685 6.97465 20.0685 7.07132C20.0685 7.139 20.0202 7.18733 19.9428 7.18733L19.8268 7.18733C19.6625 7.16798 19.4981 7.11965 19.3435 7.07132L19.1791 7.00365C19.0535 6.96498 18.9278 6.92632 18.7925 6.92632L18.6958 6.92632C18.6475 6.92632 18.5991 6.9553 18.5701 6.98431C18.5411 7.03264 18.4928 7.05198 18.4445 7.05198L18.2801 7.05198C18.1448 7.05198 17.9901 6.97464 17.8935 6.87799L17.8645 6.83932C17.7388 6.69431 17.5745 6.62665 17.3811 6.59765L17.2845 6.59765C17.0911 6.58798 16.9171 6.58798 16.7238 6.62665L16.7044 6.62665C16.5304 6.64599 16.3661 6.72333 16.2211 6.81999L16.1534 6.85866C16.0568 6.93601 15.9311 6.94567 15.8344 6.878C15.7184 6.81033 15.5927 6.81033 15.4767 6.81033L15.2834 6.82967C15.1094 6.84899 14.9354 6.89732 14.7807 6.965L14.6841 7.00366C14.5874 7.052 14.5004 7.11968 14.4424 7.21634C14.3844 7.31301 14.2877 7.36135 14.1717 7.36135L13.8817 7.36135C13.7657 7.36135 13.6497 7.38067 13.524 7.40001C13.4274 7.44834 13.3307 7.49669 13.234 7.59335L13.1857 7.65136C13.0697 7.7577 13.0117 7.88337 12.973 8.0187C12.915 8.14437 12.8087 8.21204 12.683 8.21204C12.5477 8.21204 12.4317 8.27971 12.335 8.37637L12.103 8.68571C12.0933 8.70504 12.0837 8.72438 12.0547 8.72438L11.8613 9.01438C11.7647 9.13039 11.6777 9.26573 11.61 9.40106L11.581 9.44939ZM10.2566 11.75L10.2566 11.779L10.2759 11.7692C10.2566 11.8852 10.2082 11.9819 10.1116 12.0786L9.9569 12.2332C9.88923 12.2913 9.8409 12.3686 9.8119 12.4653C9.7829 12.5522 9.71523 12.6199 9.63789 12.6199L9.44456 12.6586C9.32855 12.6779 9.23188 12.7553 9.18355 12.8519C9.13522 12.9486 9.02888 13.0453 8.91288 13.0453L8.47787 13.0453C8.36187 13.0549 8.24586 13.0936 8.16853 13.1903L8.1202 13.2386L7.95586 13.3933L7.93652 13.3933C7.88819 13.4706 7.79152 13.49 7.69485 13.49L7.24051 13.4609C7.11484 13.4609 6.98917 13.4996 6.8925 13.577C6.79583 13.6446 6.67016 13.664 6.55416 13.6156L6.52516 13.6156C6.40916 13.5673 6.28349 13.5286 6.18682 13.4706C6.08048 13.403 5.95481 13.374 5.85815 13.374L5.71314 13.374C5.58747 13.374 5.4618 13.3836 5.3458 13.4126C5.2298 13.4416 5.1138 13.3933 5.03646 13.2966L4.99779 13.2579C4.90112 13.1226 4.78512 12.9969 4.66912 12.9003C4.55312 12.7843 4.41778 12.6973 4.26311 12.6489L4.06977 12.5909C4.05044 12.5716 4.02144 12.5716 4.02144 12.5716L3.86677 12.5233C3.7701 12.4943 3.67343 12.3976 3.67343 12.2816L3.57676 11.8466C3.55743 11.7596 3.5091 11.6822 3.44143 11.6242L3.40276 11.5856C3.36409 11.5662 3.31576 11.5276 3.28676 11.4889L3.19009 11.4116C3.11276 11.3439 2.99675 11.2762 2.90008 11.2182L2.68741 11.1216C2.61975 11.0926 2.57141 11.0249 2.57141 10.9476C2.57141 10.8606 2.57141 10.7736 2.59075 10.6962L2.68741 10.1549L2.68741 10.1356L2.70675 10.0389C2.72608 9.9712 2.76475 9.91319 2.82275 9.89386L2.91942 9.84553C2.94842 9.84553 2.97742 9.78754 2.94842 9.74887C2.93875 9.71988 2.92908 9.70054 2.90008 9.70054L2.86142 9.68122L2.45541 9.50722C2.33941 9.44922 2.29107 9.31388 2.33941 9.18822L2.35874 9.11088C2.42641 8.91754 2.45541 8.72421 2.45541 8.53087L2.47474 8.08619C2.47474 7.97019 2.54241 7.85419 2.63908 7.77685C2.73575 7.70918 2.81308 7.60285 2.86142 7.48685L2.88075 7.43851C2.93875 7.30318 2.97742 7.15818 2.99675 7.01317C3.01609 6.86817 3.07409 6.72316 3.17076 6.6265L3.26743 6.52984L3.46076 6.3365L3.49943 6.28817C3.58643 6.18183 3.66377 6.07549 3.7121 5.94016C3.7701 5.82416 3.87644 5.74683 4.00211 5.74683L4.03111 5.74683C4.12778 5.74683 4.22445 5.82416 4.22445 5.94016L4.22445 5.99817C4.18578 6.20118 4.18578 6.40418 4.20511 6.61685C4.21478 6.81986 4.31145 7.00353 4.46612 7.12918L4.60145 7.25485C4.68845 7.34185 4.73679 7.45785 4.73679 7.57385C4.73679 7.70919 4.72712 7.83486 4.68845 7.96053L4.66912 8.01854C4.63045 8.18288 4.64012 8.34721 4.68845 8.50188L4.70779 8.55989C4.77546 8.74356 4.90113 8.89823 5.04613 9.01423L5.09446 9.04324C5.22013 9.13024 5.3458 9.20757 5.48114 9.26557C5.59714 9.31391 5.68414 9.43958 5.71314 9.57491L5.75181 9.83592C5.75181 10.0969 5.91615 10.2903 6.13848 10.3869L6.25449 10.4353C6.40916 10.5126 6.57349 10.5126 6.73783 10.5126C6.88283 10.4836 7.02784 10.5609 7.09551 10.7059L7.14384 10.8026C7.25018 11.0153 7.42418 11.1699 7.65618 11.2376L8.09119 11.3826L8.28453 11.4406L8.51653 11.4986C8.72921 11.5566 8.94188 11.5953 9.16422 11.5953L9.59922 11.5953C9.67656 11.6146 9.77323 11.6146 9.8699 11.5953L10.1212 11.5953C10.1986 11.5953 10.2566 11.6533 10.2566 11.75ZM18.9856 16.4965C19.0823 16.5932 19.2273 16.6318 19.3433 16.5545L19.5366 16.4288C19.6333 16.3612 19.7106 16.2645 19.7493 16.1388L19.7493 16.1195L19.846 15.8295L19.904 15.7328L19.9426 15.6361L19.9813 15.5685C20.02 15.4911 20.078 15.4331 20.1746 15.4041L20.2133 15.3848C20.2906 15.3655 20.339 15.2881 20.339 15.2108C20.339 15.1142 20.3873 15.0368 20.4356 14.9691L20.513 14.9015L20.7063 14.6501L20.7063 14.6308C20.7643 14.5535 20.803 14.4665 20.8223 14.3698C20.8416 14.2731 20.8223 14.1765 20.7836 14.0798L20.7643 14.0411C20.7257 13.9445 20.7063 13.8768 20.6967 13.7898L20.6676 13.5191L20.6386 13.2291C20.6386 13.1324 20.6773 13.0358 20.7353 12.9391C20.803 12.8618 20.8513 12.7651 20.89 12.6684L20.89 12.6298L20.9093 12.6104C20.9287 12.5138 20.8803 12.4171 20.7933 12.4171C20.6966 12.3688 20.6 12.2914 20.571 12.1754L20.542 12.1174C20.4936 11.9434 20.4646 11.7694 20.4646 11.5954L20.484 11.1121L20.484 11.0831C20.484 10.9187 20.3486 10.793 20.1939 10.793L20.1746 10.793C19.9813 10.793 19.8266 10.7351 19.6913 10.5997L19.6139 10.503L19.4206 10.2807L19.1693 9.9907C19.0726 9.85538 18.9759 9.73937 18.8503 9.62336C18.7536 9.52668 18.6086 9.43003 18.4636 9.41069L18.2702 9.38169C18.1736 9.36236 18.0479 9.31401 17.9416 9.24636C17.8642 9.18835 17.7482 9.20769 17.6709 9.28503L17.5452 9.42035L17.4872 9.45902C17.4195 9.47837 17.3519 9.4397 17.3229 9.36236C17.2842 9.24636 17.2842 9.11102 17.3422 8.99502L17.3422 8.93703C17.3422 8.86936 17.2842 8.82102 17.2262 8.84035L17.0715 8.84035C16.8975 8.84035 16.7235 8.82102 16.5592 8.74369L16.4625 8.70502C16.3659 8.65669 16.2499 8.62769 16.1435 8.62769C16.0469 8.62769 15.9502 8.64701 15.8535 8.70502L15.8149 8.73403C15.6989 8.81136 15.5635 8.85003 15.4282 8.85969L15.1092 8.85969C14.9642 8.85969 14.8192 8.90802 14.7225 8.98536C14.5968 9.06269 14.4615 9.11102 14.3165 9.14003L14.0555 9.1787C13.9395 9.2077 13.8138 9.25603 13.7075 9.34303C13.6108 9.43969 13.4755 9.4977 13.3498 9.53637L13.3015 9.55569C13.1468 9.60402 13.0115 9.7007 12.9148 9.8457L12.7988 9.9617C12.7311 10.0584 12.7311 10.1744 12.7988 10.271C12.8568 10.3677 12.9728 10.3967 13.0888 10.3677L13.2338 10.3097C13.3111 10.2807 13.3981 10.3097 13.4658 10.3484C13.5238 10.3967 13.6108 10.4257 13.6978 10.4161L13.9395 10.387C14.0748 10.387 14.2102 10.387 14.3455 10.4257C14.4905 10.474 14.6162 10.5224 14.7322 10.6191C14.8482 10.7157 14.9738 10.7544 15.1188 10.7737C15.2638 10.793 15.4089 10.8221 15.5442 10.8704L15.6409 10.8897C15.7375 10.9187 15.8149 10.9864 15.8729 11.083C15.9212 11.1604 15.9695 11.2764 15.9695 11.373L15.9695 11.4021C15.9695 11.5181 16.0662 11.5954 16.1629 11.5954L16.2209 11.5954C16.3755 11.5954 16.5399 11.6147 16.7042 11.6631L16.7719 11.6921C16.8685 11.7307 16.9652 11.7887 17.0329 11.8854C17.1102 11.9821 17.1586 12.0787 17.1876 12.1754L17.2166 12.3107C17.2456 12.4558 17.2552 12.6007 17.2552 12.7554L17.2552 12.8037C17.2552 12.9004 17.3229 12.9971 17.4292 13.0358C17.5259 13.0551 17.6419 13.0937 17.7482 13.1518L17.7966 13.1711C17.9222 13.2484 18.0479 13.3451 18.1446 13.4611L18.1929 13.5288C18.3186 13.6738 18.3862 13.8574 18.3862 14.0411L18.3862 14.1088C18.3862 14.2538 18.3572 14.3988 18.3089 14.5341C18.2702 14.6501 18.3089 14.7855 18.4346 14.8241L18.5022 14.8725C18.6472 14.9305 18.7729 15.0368 18.8696 15.1625C18.9662 15.3075 19.0049 15.4718 19.0049 15.6458L19.0049 15.9358C18.9856 16.0325 18.9566 16.1098 18.9082 16.1775C18.8599 16.2452 18.8599 16.3418 18.9082 16.4095L18.9663 16.5062L18.9856 16.4965ZM12.7796 11.547L12.7989 11.547L12.8279 11.5953C12.8859 11.6147 12.9536 11.6533 12.9826 11.7113L13.0116 11.7597C13.0116 11.808 13.0696 11.808 13.1083 11.808C13.1179 11.7983 13.1469 11.7887 13.1469 11.7693L13.1856 11.7113C13.2243 11.6147 13.3403 11.5857 13.4176 11.6147L13.7076 11.808L13.8333 11.9047C13.959 12.0014 14.017 12.156 13.9976 12.3107C13.9783 12.359 14.017 12.4073 14.075 12.4073C14.104 12.417 14.1233 12.4073 14.1426 12.3783L14.2393 12.2817C14.2973 12.2237 14.394 12.2237 14.452 12.301L14.4713 12.301C14.539 12.3687 14.6356 12.446 14.7323 12.4653L15.0417 12.562L15.1963 12.6103C15.2543 12.6393 15.293 12.678 15.293 12.736L15.322 12.9003C15.351 13.0357 15.3897 13.171 15.467 13.2677C15.5443 13.3837 15.641 13.4707 15.7377 13.5287L15.8053 13.548C15.9407 13.6447 16.0373 13.7704 16.0567 13.9347L16.076 14.0798C16.0953 14.1475 16.0953 14.2151 16.0953 14.2731L16.1147 14.4665C16.134 14.6405 16.2113 14.8145 16.3467 14.9305L16.511 15.0755C16.6077 15.1528 16.6174 15.2882 16.54 15.3848C16.4627 15.5008 16.395 15.6265 16.3467 15.7522L16.3467 15.8005C16.2983 15.9648 16.2983 16.1292 16.3177 16.2838L16.3177 16.3225C16.337 16.4578 16.3853 16.5932 16.482 16.6898C16.5594 16.7768 16.5594 16.9025 16.5014 16.9992L16.4047 17.1248C16.337 17.2022 16.2983 17.2699 16.2403 17.3182L16.163 17.4149L15.9697 17.7049C15.9117 17.8015 15.873 17.9272 15.8537 18.0239L15.8537 18.6715C15.8633 18.8262 15.7473 18.9712 15.5927 19.0002L15.5153 19.0002C15.38 19.0099 15.2543 19.0582 15.1287 19.1549C15.032 19.2516 14.9353 19.3579 14.8387 19.4836C14.742 19.6092 14.684 19.7542 14.6453 19.8992C14.6066 20.0346 14.4906 20.1312 14.3553 20.1506L14.0073 20.1796C13.8913 20.1796 13.756 20.2086 13.6593 20.2762L13.582 20.3246L13.4273 20.4213L13.1856 20.5856C13.1179 20.6436 13.0503 20.7112 13.0213 20.7789C12.9729 20.8369 12.8956 20.8659 12.8279 20.8369L12.7893 20.8176C12.6926 20.7596 12.5863 20.7403 12.4703 20.7403L12.3929 20.7403C12.2576 20.7403 12.1319 20.7596 12.0063 20.7982L11.9289 20.8176C11.8516 20.8466 11.7936 20.8852 11.7356 20.9432C11.6872 20.9916 11.6099 21.0109 11.5616 20.9916L11.4456 20.9529C11.3102 20.8949 11.1556 20.8755 10.9912 20.8949L10.8462 20.9142C10.7206 20.9239 10.5852 20.9142 10.4596 20.8659L10.4402 20.8659C10.3242 20.8369 10.2275 20.7885 10.1309 20.7209C10.0342 20.6725 9.91821 20.6242 9.82154 20.6242L9.60887 20.5855C9.49287 20.5855 9.38653 20.5082 9.31886 20.3922C9.28986 20.3342 9.29953 20.2762 9.3382 20.2375L9.4252 20.2375L9.74421 20.2762L10.0922 20.3439C10.2856 20.3729 10.4596 20.3149 10.5756 20.1795L10.7206 20.0249L10.8656 19.8798L10.9912 19.7348C11.1266 19.6092 11.1942 19.4448 11.2232 19.2515L11.2716 18.9325C11.2909 18.8261 11.3489 18.7391 11.4456 18.7005L11.7356 18.5555L11.8516 18.4781C12.0256 18.3815 12.1706 18.2461 12.2866 18.0915L12.3059 18.0915C12.4219 17.8981 12.5089 17.7048 12.5573 17.5115L12.6346 17.1634C12.6636 17.0668 12.7313 16.9894 12.8279 16.9508C12.9053 16.9121 12.9729 16.8541 13.0213 16.7574L13.0889 16.6414C13.1856 16.4674 13.2436 16.2934 13.2823 16.1001L13.3209 15.8391C13.3306 15.7424 13.3209 15.6457 13.2919 15.5491L13.2919 15.5297C13.2629 15.4524 13.2339 15.3654 13.2339 15.2881C13.2339 15.2204 13.2629 15.1431 13.3306 15.1431L13.4273 15.1237C13.5433 15.1044 13.6206 14.9981 13.6206 14.8724L13.5916 14.3407C13.582 14.2054 13.5433 14.07 13.4466 13.954L13.3983 13.9057C13.3403 13.8284 13.3209 13.7317 13.3403 13.635L13.3403 13.1517C13.3306 12.9777 13.2436 12.8037 13.0986 12.6877L13.0599 12.6877C12.9439 12.591 12.8666 12.4557 12.8473 12.301C12.8279 12.1463 12.8086 11.9917 12.7699 11.837L12.7313 11.6437C12.7216 11.5953 12.7409 11.547 12.7796 11.547ZM11.6388 12.5137L11.5905 12.4654C11.5422 12.4267 11.4938 12.4364 11.4455 12.4847C11.3778 12.6007 11.3198 12.7264 11.2908 12.8521L11.2908 12.8714C11.2618 12.997 11.1458 13.0841 11.0298 13.0647L10.9138 13.0647C10.7785 13.0647 10.6721 13.1807 10.6721 13.3161C10.6721 13.4901 10.6141 13.6641 10.5078 13.7994L10.4498 13.8574C10.3531 13.9831 10.2081 14.0701 10.0631 14.1184L9.98579 14.1377C9.88912 14.1668 9.81179 14.2344 9.79246 14.3504C9.79246 14.4471 9.73445 14.5438 9.65712 14.6211L9.56045 14.6984C9.44445 14.8241 9.27044 14.8918 9.09644 14.9111L8.6131 14.9594C8.45843 14.9594 8.32309 15.0561 8.22642 15.2011C8.12976 15.3461 7.98475 15.4428 7.83975 15.4621L7.62708 15.4814C7.47241 15.5008 7.30807 15.5008 7.14373 15.4621L7.04707 15.4428L6.78606 15.3751C6.68939 15.3461 6.61206 15.3751 6.55406 15.4428L6.45739 15.5684C6.33172 15.7135 6.14805 15.7811 5.97404 15.7618L5.3457 15.6844C5.24903 15.6844 5.17169 15.6361 5.08469 15.5878C4.98803 15.5298 4.92036 15.4621 4.85269 15.3944L4.61102 15.1044C4.58202 15.0851 4.53368 15.0754 4.48535 15.0851L4.35001 15.1431L3.80867 15.2785C3.712 15.3075 3.58633 15.2785 3.48966 15.2204C3.39299 15.1431 3.27699 15.1238 3.16099 15.1238L3.03532 15.1238C2.91932 15.1528 2.84198 15.2785 2.88065 15.3945L2.91932 15.5878C2.94832 15.6845 2.93865 15.8005 2.89032 15.8971C2.84198 15.9938 2.85165 16.0905 2.91932 16.1871L2.97732 16.2645C3.05465 16.3805 3.17066 16.4772 3.26732 16.5738C3.36399 16.6705 3.46066 16.7672 3.538 16.8928L3.683 17.1538C3.76034 17.2892 3.87634 17.3665 4.03101 17.3665C4.17601 17.3665 4.32101 17.4148 4.43702 17.5115L4.72702 17.7822C4.80436 17.8499 4.92036 17.8595 4.99769 17.8015L5.04603 17.7822C5.10403 17.7822 5.1427 17.8209 5.1427 17.8788L5.1427 17.9272C5.1427 18.0528 5.23936 18.1688 5.36503 18.2172L5.80004 18.3139C5.95471 18.3622 6.10938 18.4105 6.25439 18.5072L6.33172 18.5072C6.40906 18.5072 6.47673 18.4395 6.46706 18.3525L6.46706 18.0142C6.46706 17.9175 6.50573 17.8209 6.58306 17.7822L6.63139 17.7628C6.67973 17.7822 6.72806 17.8209 6.70873 17.8595L6.70873 18.0238C6.70873 18.1495 6.7474 18.2655 6.8344 18.3525C6.93107 18.4492 7.05674 18.4685 7.16307 18.4298C7.27908 18.3815 7.39508 18.3718 7.52075 18.3815L7.87842 18.4008C8.05242 18.4202 8.21676 18.4008 8.36176 18.3332C8.53577 18.2752 8.68077 18.1978 8.81611 18.0915L8.87411 18.0528L9.16412 17.7918C9.26078 17.6952 9.38645 17.6468 9.50246 17.6468L9.88913 17.6468C10.0825 17.6275 10.2565 17.4535 10.2758 17.2601L10.3145 17.0668C10.3145 16.9411 10.3725 16.8251 10.4595 16.7285C10.5561 16.6318 10.6528 16.5738 10.7495 16.5351L10.8655 16.4868C11.0298 16.4191 11.1555 16.2741 11.2135 16.1001L11.2715 15.8681C11.3198 15.6748 11.4165 15.4814 11.5615 15.3558L11.5808 15.3364C11.6968 15.2398 11.7162 15.0464 11.6388 14.9111L11.6098 14.8434C11.5422 14.7467 11.5325 14.6017 11.5808 14.4761C11.6292 14.3407 11.6775 14.2247 11.7548 14.1087L11.8515 13.9734C11.8902 13.8961 11.8902 13.7801 11.8322 13.7124C11.7742 13.6351 11.7355 13.5384 11.7355 13.4417L11.7162 13.3064L11.7162 12.9777C11.7355 12.881 11.7162 12.7554 11.6872 12.6587L11.6485 12.5427L11.6388 12.5137Z" transform="translate(1.9285889 2.0097656)" id="Shape" fill="#BB432C" fill-rule="evenodd" stroke="none" />
    </g>
  </g>
</svg>