<?xml version="1.0" encoding="utf-8"?>
<svg width="33px" height="33px" viewBox="0 0 33 33" version="1.1" xmlns:xlink="http://www.w3.org/1999/xlink" xmlns="http://www.w3.org/2000/svg">
  <desc>Created with Lunacy</desc>
  <defs>
    <path d="M0 0L32.7724 0L32.7724 32.7724L0 32.7724L0 0Z" id="path_1" />
    <clipPath id="mask_1">
      <use xlink:href="#path_1" />
    </clipPath>
  </defs>
  <g id="icons8_github_1">
    <path d="M0 0L32.7724 0L32.7724 32.7724L0 32.7724L0 0Z" id="Background" fill="none" stroke="none" />
    <g clip-path="url(#mask_1)">
      <path d="M23.2138 11.6069C23.2138 18.0248 18.0248 23.2138 11.6069 23.2138C5.18896 23.2138 0 18.0248 0 11.6069C0 5.18896 5.18896 0 11.6069 0C18.0248 0 23.2138 5.18896 23.2138 11.6069L23.2138 11.6069Z" transform="translate(4.7793274 4.779297)" id="Shape" fill="#FFFFFF" stroke="none" />
      <path d="M0.0682757 0.682758C0 0.682758 0 0.682758 0 0.597413C0 0.512068 0 0.512068 0.0682757 0.426723C0.614482 0.256033 1.70689 0 2.32138 0C2.86758 0 4.71103 0.17069 4.77931 0.17069C4.84758 0.17069 4.84758 0.256035 4.84758 0.256035C4.84758 0.34138 4.77931 0.34138 4.77931 0.34138C4.77931 0.34138 2.93586 0.17069 2.38965 0.17069C1.63862 0.34138 0.614482 0.51207 0.0682757 0.682758ZM22.1214 0.819307C22.1214 0.819307 21.2338 0.364136 20.4827 0.364136L20.4145 0.364136C19.6634 0.364136 18.4345 0.705514 18.4345 0.705514C18.3662 0.705514 18.3662 0.705514 18.3662 0.591721C18.3662 0.477927 18.3662 0.477927 18.4345 0.477927C18.5028 0.477927 19.8 0.13655 20.551 0.13655C21.3021 0.13655 22.1896 0.591721 22.2579 0.591721C22.3262 0.591721 22.3262 0.705514 22.3262 0.819307C22.2352 0.743446 22.2048 0.768732 22.1745 0.794019C22.1593 0.806663 22.1441 0.819307 22.1214 0.819307ZM0.27312 1.50206C0.27312 1.57034 0.341396 1.57034 0.341396 1.57034C0.341396 1.57034 1.29726 1.02413 2.32139 0.819306C3.20898 0.682755 5.1207 0.887582 5.1207 0.887582C5.1207 0.887582 5.18898 0.887582 5.18898 0.819306C5.18898 0.819306 5.18898 0.75103 5.1207 0.75103C5.09486 0.75103 5.0079 0.743695 4.87785 0.732727C4.32069 0.685733 2.97274 0.572042 2.25312 0.682754C1.22898 0.819306 0.341396 1.36551 0.27312 1.36551L0.27312 1.50206ZM20.1413 0.910345C20.9607 0.910345 21.9165 1.36552 21.9165 1.36552C21.9507 1.36552 21.9677 1.33707 21.9763 1.32284C21.9792 1.31793 21.9811 1.31471 21.9824 1.31495C21.9848 1.31541 21.9848 1.32826 21.9848 1.36543C21.9848 1.25166 21.9848 1.13793 21.9165 1.13793C21.9165 1.13793 21.0289 0.682758 20.1413 0.682758C19.5269 0.682758 18.0931 0.910345 18.0248 0.910345C17.9565 0.910345 17.9565 0.910345 17.9565 1.02414C17.9565 1.13793 17.9565 1.13793 18.0248 1.13793C18.0931 1.13793 19.5269 0.910345 20.1413 0.910345ZM9.08069 6.7593L9.08069 10.5145L7.78345 10.5145C7.71517 10.3096 7.6469 10.0365 7.6469 9.76344L7.6469 7.10068C7.6469 5.66689 9.01241 3.55034 10.5828 3.55034L12.2896 3.55034C13.9283 3.55034 15.2255 5.59861 15.2255 7.10068L15.2255 9.76344C15.2255 10.1048 15.2255 10.3096 15.089 10.5145L13.86 10.5145L13.86 6.7593C13.86 6.55447 13.7234 6.41792 13.5186 6.41792C13.3138 6.41792 13.1772 6.55447 13.1772 6.7593L13.1772 10.5145L11.8117 10.5145L11.8117 6.07654C11.8117 5.87172 11.6752 5.73516 11.4703 5.73516C11.2655 5.73516 11.129 5.87172 11.129 6.07654L11.129 10.5145L9.76344 10.5145L9.76344 6.7593C9.76344 6.55447 9.62689 6.41792 9.42207 6.41792C9.21724 6.41792 9.08069 6.55447 9.08069 6.7593Z" transform="translate(5.2572327 17.478607)" id="Shape" fill="#455A64" fill-rule="evenodd" stroke="none" />
      <path d="M0 5.80344C0 2.79931 3.14069 0 7.03241 0C10.9241 0 14.0648 2.73103 14.0648 5.80344C14.0648 8.87585 11.8117 10.9241 7.03241 10.9241C2.2531 10.9241 0 8.80758 0 5.80344L0 5.80344Z" transform="translate(9.695099 10.241364)" id="Shape" fill="#455A64" stroke="none" />
      <path d="M5.89967 1.57034C5.89967 1.57034 4.73898 0 2.62243 0C1.80312 0.819309 2.34933 3.27724 2.62243 3.96L5.89967 1.57034ZM11.4983 1.57034C11.4983 1.57034 12.659 0 14.7755 0C15.5948 0.819309 15.0486 3.27724 14.7755 3.96L11.4983 1.57034ZM3.78313 14.9524L5.69485 14.9524L6.10451 12.9041C5.5583 13.5186 4.60244 13.5186 3.71485 13.5186C2.82727 13.5186 2.28106 12.7676 1.80313 12.1531C1.3252 11.5386 0.710719 11.4703 0.36934 11.4021C0.0279614 11.4021 -0.10859 11.5386 0.0962375 11.6752C1.12037 12.3579 1.46175 13.1772 1.87141 13.9283C2.21279 14.611 2.96382 14.9524 3.78313 14.9524Z" transform="translate(8.028595 9.558609)" id="Shape" fill="#455A64" fill-rule="evenodd" stroke="none" />
      <path d="M0 13.6552C0 6.14482 6.14482 0 13.6552 0C21.1655 0 27.3103 6.14482 27.3103 13.6552C27.3103 21.1655 21.1655 27.3103 13.6552 27.3103C6.14482 27.3103 0 21.1655 0 13.6552ZM2.73103 13.6552C2.73103 19.6634 7.64689 24.5793 13.6552 24.5793C19.6634 24.5793 24.5793 19.6634 24.5793 13.6552C24.5793 7.64689 19.6634 2.73103 13.6552 2.73103C7.64689 2.73103 2.73103 7.64689 2.73103 13.6552Z" transform="translate(2.731018 2.7310333)" id="Shape" fill="#00BCD4" fill-rule="evenodd" stroke="none" />
    </g>
  </g>
</svg>