<?xml version="1.0" encoding="utf-8"?>
<svg width="51px" height="51px" viewBox="0 0 51 51" version="1.1" xmlns:xlink="http://www.w3.org/1999/xlink" xmlns="http://www.w3.org/2000/svg">
  <desc>Created with Lunacy</desc>
  <g id="Logo" transform="translate(0.5 0.5)">
    <path d="M9.53674e-07 20.524C-0.00303268 9.18671 6.63221 -0.00218868 14.8202 0C23.0083 0.00218773 29.6485 9.19463 29.6515 20.5319C29.6545 31.8692 23.0193 41.0581 14.8312 41.0559C6.6432 41.0537 0.00303364 31.8612 9.53674e-07 20.524Z" transform="matrix(0.70710677 -0.70710677 0.70710677 0.70710677 0 20.966766)" id="Ellipse" fill="none" stroke="#90C418" stroke-opacity="0.6901961" stroke-width="1" />
    <g id="dots" transform="translate(12.081909 11.226883)">
      <path d="M0.0106602 0.990815C-0.0749035 0.363933 0.363924 -0.0748967 0.990808 0.0106593C1.61768 0.0962125 2.19522 0.673752 2.28077 1.30063C2.36634 1.92751 1.9275 2.36633 1.30062 2.28078C0.673742 2.19523 0.0962124 1.61769 0.0106602 0.990815Z" transform="matrix(0.70710677 0.70710677 -0.70710677 0.70710677 18.057281 19.569931)" id="dot" fill="#90C418" stroke="none" />
      <path d="M0.0106621 0.990815C-0.0749073 0.363934 0.36393 -0.0749028 0.990803 0.0106609C1.61768 0.0962179 2.19523 0.673749 2.28078 1.30063C2.36634 1.92751 1.9275 2.36634 1.30063 2.28078C0.673752 2.19523 0.0962105 1.61769 0.0106621 0.990815Z" transform="matrix(0.70710677 0.70710677 -0.70710677 0.70710677 21.283783 19.569931)" id="dot-Copy" fill="#90C418" stroke="none" />
      <path d="M0.0106583 0.990806C-0.074894 0.36392 0.363916 -0.0749009 0.990799 0.0106609C1.61769 0.0962141 2.19523 0.673753 2.28077 1.30063C2.36633 1.9275 1.92751 2.36633 1.30063 2.28078C0.673752 2.19522 0.096199 1.61769 0.0106583 0.990806Z" transform="matrix(0.70710677 0.70710677 -0.70710677 0.70710677 24.901825 19.569946)" id="dot-Copy-2" fill="#90C418" stroke="none" />
      <path d="M16.286 22.1492C14.6724 23.0366 12.6633 23.4807 10.2589 23.4807C7.15328 23.4807 4.66775 22.4403 2.80065 20.3596C0.93355 18.278 0 15.5483 0 12.1677C0 8.53396 1.05014 5.59755 3.15042 3.35853C5.25069 1.11951 7.91448 0 11.1418 0C13.2116 0 14.9267 0.311317 16.286 0.934831L16.286 3.77098C14.7231 2.86253 12.9987 2.40787 11.1114 2.40787C8.60471 2.40787 6.57287 3.27938 5.01498 5.02241C3.45709 6.76543 2.67899 9.09415 2.67899 12.0094C2.67899 14.777 3.4064 16.9817 4.86291 18.6245C6.31857 20.2664 8.22876 21.0878 10.5935 21.0878C12.785 21.0878 14.6825 20.5812 16.286 19.5672L16.286 22.1492Z" id="Shape-Copy" fill="#90C418" stroke="none" />
    </g>
  </g>
</svg>