<?xml version="1.0" encoding="utf-8"?>
<svg width="1404px" height="579px" viewBox="0 0 1404 579" version="1.1" xmlns:xlink="http://www.w3.org/1999/xlink" xmlns="http://www.w3.org/2000/svg">
  <desc>Created with Lunacy</desc>
  <path d="M15.3204 538.808C-45.0005 505.058 92.2691 403.809 92.2691 403.809C92.2691 403.809 315.666 404.375 318.119 305.309C320.572 206.242 295.389 189.556 646.4 220.309C997.412 251.061 898.982 104.934 1037.64 59.3085C1176.3 13.6833 1114.59 89.4402 1201.03 37.8082C1467.69 -121.472 1204.35 270.406 1339.44 328.308C1474.53 386.211 1354.84 511.309 1354.84 511.309C1354.84 511.309 1167.48 566.763 912.156 573.638C656.834 580.513 365.054 585.982 333.553 538.808C271.039 445.191 75.6412 572.558 15.3204 538.808Z" id="New-shape" fill="#1D7874" fill-opacity="0.12941177" stroke="none" />
</svg>