<?xml version="1.0" encoding="utf-8"?>
<svg width="33px" height="33px" viewBox="0 0 33 33" version="1.1" xmlns:xlink="http://www.w3.org/1999/xlink" xmlns="http://www.w3.org/2000/svg">
  <desc>Created with Lunacy</desc>
  <defs>
    <path d="M0 0L32.7724 0L32.7724 32.7724L0 32.7724L0 0Z" id="path_1" />
    <clipPath id="mask_1">
      <use xlink:href="#path_1" />
    </clipPath>
  </defs>
  <g id="icons8_google_2">
    <path d="M0 0L32.7724 0L32.7724 32.7724L0 32.7724L0 0Z" id="Background" fill="none" stroke="none" />
    <g clip-path="url(#mask_1)">
      <path d="M27.0447 10.9808L25.9448 10.9808L25.9448 10.9241L13.6552 10.9241L13.6552 16.3862L21.3724 16.3862C20.2465 19.5658 17.2212 21.8483 13.6552 21.8483C9.13052 21.8483 5.46206 18.1798 5.46206 13.6552C5.46206 9.13052 9.13052 5.46206 13.6552 5.46206C15.7437 5.46206 17.6438 6.24997 19.0906 7.53696L22.953 3.6746C20.5141 1.4017 17.2519 0 13.6552 0C6.1141 0 0 6.1141 0 13.6552C0 21.1962 6.1141 27.3103 13.6552 27.3103C21.1962 27.3103 27.3103 21.1962 27.3103 13.6552C27.3103 12.7396 27.2161 11.8458 27.0447 10.9808L27.0447 10.9808Z" transform="translate(2.731018 2.7310333)" id="Shape" fill="#FFC107" stroke="none" />
      <path d="M0 7.29936L4.4864 10.5896C5.70034 7.58407 8.6403 5.46206 12.0807 5.46206C14.1693 5.46206 16.0694 6.24997 17.5162 7.53696L21.3785 3.6746C18.9397 1.4017 15.6775 0 12.0807 0C6.83577 0 2.28724 2.96112 0 7.29936L0 7.29936Z" transform="translate(4.305481 2.7310333)" id="Shape" fill="#FF3D00" stroke="none" />
      <path d="M12.1565 10.8873C15.6836 10.8873 18.8885 9.53744 21.3116 7.34238L17.0853 3.76609C15.7144 4.80457 14.0102 5.42519 12.1565 5.42519C8.6048 5.42519 5.58905 3.16048 4.45295 0L0 3.43086C2.25993 7.85308 6.84943 10.8873 12.1565 10.8873L12.1565 10.8873Z" transform="translate(4.229645 19.154083)" id="Shape" fill="#4CAF50" stroke="none" />
      <path d="M13.3896 0.056669L12.2896 0.056669L12.2896 0L0 0L0 5.46206L7.71721 5.46206C7.17647 6.98939 6.19398 8.30643 4.92678 9.26571C4.92746 9.26502 4.92815 9.26502 4.92883 9.26434L9.1551 12.8406C8.85605 13.1124 13.6552 9.55861 13.6552 2.73103C13.6552 1.81545 13.5609 0.921723 13.3896 0.056669L13.3896 0.056669Z" transform="translate(16.3862 13.655151)" id="Shape" fill="#1976D2" stroke="none" />
    </g>
  </g>
</svg>