<svg id="Capa_1" enable-background="new 0 0 510 510" height="512" viewBox="0 0 510 510" width="512" xmlns="http://www.w3.org/2000/svg"><g><path d="m75 75 30 10 30-10v-75h-60z" fill="#3f617f"/><path d="m435 435h75c0-7.259 0-52.693 0-60-20.194 0-63.236 0-75 0l-10 30z" fill="#294865"/><path d="m135 135-30-10-30 10v300l30-15 30-45c0-6.772 0-233.232 0-240z" fill="#3f617f"/><path d="m375 375c-24.932 0-215.189 0-240 0l-60 60h300l10-30z" fill="#294865"/><path d="m0 75v60h375l30-15 30-45c-8.411 0-421.274 0-435 0z" fill="#294865"/><path d="m375 510h60c0-12.27 0-422.731 0-435l-60 60z" fill="#15314c"/></g></svg>