<?xml version="1.0" encoding="utf-8"?>
<svg width="123px" height="59px" viewBox="0 0 123 59" version="1.1" xmlns:xlink="http://www.w3.org/1999/xlink" xmlns="http://www.w3.org/2000/svg">
  <desc>Created with Lunacy</desc>
  <g id="Logo">
    <g id="Cris-..">
      <g id="C" fill="#EE2E31">
        <path d="M20.064 46.588Q15.072 46.588 11.064 44.38Q7.056 42.172 4.776 38.26Q2.496 34.348 2.496 29.5Q2.496 24.652 4.776 20.74Q7.056 16.828 11.088 14.62Q15.12 12.412 20.112 12.412Q23.856 12.412 27.024 13.66Q30.192 14.908 32.4 17.308L30.144 19.564Q26.208 15.58 20.208 15.58Q16.224 15.58 12.96 17.404Q9.696 19.228 7.848 22.396Q6 25.564 6 29.5Q6 33.436 7.848 36.604Q9.696 39.772 12.96 41.596Q16.224 43.42 20.208 43.42Q26.256 43.42 30.144 39.388L32.4 41.644Q30.192 44.044 27 45.316Q23.808 46.588 20.064 46.588Z" />
      </g>
      <g id="r" fill="#FFFFFF">
        <path d="M42.528 25.996Q43.728 23.452 46.104 22.156Q48.48 20.86 51.984 20.86L51.984 24.172L51.168 24.124Q47.184 24.124 44.928 26.572Q42.672 29.02 42.672 33.436L42.672 46.3L39.264 46.3L39.264 21.052L42.528 21.052L42.528 25.996Z" />
      </g>
      <g id="i" fill="#EE2E31">
        <path d="M58.512 21.052L61.92 21.052L61.92 46.3L58.512 46.3L58.512 21.052ZM60.24 15.532Q59.184 15.532 58.464 14.812Q57.744 14.092 57.744 13.084Q57.744 12.124 58.464 11.404Q59.184 10.684 60.24 10.684Q61.296 10.684 62.016 11.38Q62.736 12.076 62.736 13.036Q62.736 14.092 62.016 14.812Q61.296 15.532 60.24 15.532Z" />
      </g>
      <g id="s" fill="#FFFFFF">
        <path d="M78.192 46.54Q75.12 46.54 72.312 45.652Q69.504 44.764 67.92 43.42L69.456 40.732Q71.04 41.98 73.44 42.772Q75.84 43.564 78.432 43.564Q81.888 43.564 83.544 42.484Q85.2 41.404 85.2 39.436Q85.2 38.044 84.288 37.252Q83.376 36.46 81.984 36.052Q80.592 35.644 78.288 35.26Q75.216 34.684 73.344 34.084Q71.472 33.484 70.152 32.044Q68.832 30.604 68.832 28.06Q68.832 24.892 71.472 22.876Q74.112 20.86 78.816 20.86Q81.264 20.86 83.712 21.508Q86.16 22.156 87.744 23.212L86.256 25.948Q83.136 23.788 78.816 23.788Q75.552 23.788 73.896 24.94Q72.24 26.092 72.24 27.964Q72.24 29.404 73.176 30.268Q74.112 31.132 75.504 31.54Q76.896 31.948 79.344 32.38Q82.368 32.956 84.192 33.532Q86.016 34.108 87.312 35.5Q88.608 36.892 88.608 39.34Q88.608 42.652 85.848 44.596Q83.088 46.54 78.192 46.54Z" />
      </g>
      <g id="." fill="#EE2E31">
        <path d="M107.808 46.54Q106.752 46.54 106.008 45.772Q105.264 45.004 105.264 43.9Q105.264 42.796 106.008 42.052Q106.752 41.308 107.808 41.308Q108.864 41.308 109.632 42.052Q110.4 42.796 110.4 43.9Q110.4 45.004 109.632 45.772Q108.864 46.54 107.808 46.54Z" />
      </g>
      <g id="." fill="#FFFFFF">
        <path d="M117.984 46.54Q116.928 46.54 116.184 45.772Q115.44 45.004 115.44 43.9Q115.44 42.796 116.184 42.052Q116.928 41.308 117.984 41.308Q119.04 41.308 119.808 42.052Q120.576 42.796 120.576 43.9Q120.576 45.004 119.808 45.772Q119.04 46.54 117.984 46.54Z" />
      </g>
    </g>
    <path d="M0 0L7 0L7 8L0 8L0 0Z" transform="matrix(0.777146 -0.6293204 0.6293204 0.777146 24.52539 28.694702)" id="Rectangle" fill="#EE2E31" stroke="none" />
  </g>
</svg>