<?xml version="1.0" encoding="utf-8"?>
<svg width="1077px" height="756px" viewBox="0 0 1077 756" version="1.1" xmlns:xlink="http://www.w3.org/1999/xlink" xmlns="http://www.w3.org/2000/svg">
  <desc>Created with Lunacy</desc>
  <defs>
    <path d="M0 0L1077 0L1077 756L0 756L0 0Z" id="path_1" />
    <clipPath id="mask_1">
      <use xlink:href="#path_1" />
    </clipPath>
  </defs>
  <g id="web-developer">
    <path d="M0 0L1077 0L1077 756L0 756L0 0Z" id="Background" fill="none" stroke="none" />
    <g clip-path="url(#mask_1)">
      <g id="web-developer" transform="translate(0.00024414062 0)">
        <path d="M39.6695 53.0998C32.685 79.6977 8.21048 96.3195 8.21048 96.3195C8.21048 96.3195 -4.93985 69.8175 2.04465 43.2197C9.02914 16.6218 33.5037 0 33.5037 0C33.5037 0 46.654 26.5019 39.6695 53.0998L39.6695 53.0998L39.6695 53.0998Z" transform="translate(824.4763 649.32355)" id="Shape" fill="#3F3D56" stroke="none" />
        <path d="M21.7512 21.1586C2.18866 40.4857 0 69.9899 0 69.9899C0 69.9899 29.5284 68.1584 49.091 48.8313C68.6536 29.5042 70.8422 0 70.8422 0C70.8422 0 41.3136 1.83136 21.7512 21.1586L21.7512 21.1586L21.7512 21.1586Z" transform="translate(831.8008 675.63806)" id="Shape#1" fill="#EE2E31" stroke="none" />
        <path d="M32.8941 42.4462L69.7355 42.4462L160.523 6.92054C160.523 6.92054 224.996 -19.3948 219.733 30.6043C214.47 80.6034 205.259 147.707 205.259 147.707C205.259 147.707 176.312 134.55 160.523 138.497C144.734 142.444 155.26 58.2354 155.26 58.2354C155.26 58.2354 26.3153 120.076 14.4734 112.182C2.63153 104.287 0 49.0251 0 49.0251L32.8941 42.4462L32.8941 42.4462Z" transform="translate(111.83984 559.3622)" id="Shape#2" fill="#2F2E41" stroke="none" />
        <path d="M32.8941 42.4462L69.7355 42.4462L160.523 6.92054C160.523 6.92054 224.996 -19.3948 219.733 30.6043C214.47 80.6034 205.259 147.707 205.259 147.707C205.259 147.707 176.312 134.55 160.523 138.497C144.734 142.444 155.26 58.2354 155.26 58.2354C155.26 58.2354 26.3153 120.076 14.4734 112.182C2.63153 104.287 0 49.0251 0 49.0251L32.8941 42.4462L32.8941 42.4462Z" transform="translate(111.83984 559.3622)" id="Shape#3" fill="#000000" fill-opacity="0.101960786" stroke="none" />
        <path d="M33.0443 0L77.6301 64.0592L181.575 150.9C181.575 150.9 277.626 173.268 264.469 189.057C251.311 204.846 171.049 173.268 171.049 173.268C171.049 173.268 51.3148 86.4272 47.3675 79.8484C43.4203 73.2696 0 11.4286 0 11.4286L33.0443 0L33.0443 0Z" transform="translate(169.73364 486.43433)" id="Shape#4" fill="#A0616A" stroke="none" />
        <path d="M33.0443 0L77.6301 64.0592L181.575 150.9C181.575 150.9 277.626 173.268 264.469 189.057C251.311 204.846 171.049 173.268 171.049 173.268C171.049 173.268 51.3148 86.4272 47.3675 79.8484C43.4203 73.2696 0 11.4286 0 11.4286L33.0443 0L33.0443 0Z" transform="translate(169.73364 486.43433)" id="Shape#5" fill="#ECDDBB" stroke="none" />
        <path d="M43.4202 0L72.367 56.5779C72.367 56.5779 65.7882 84.2089 55.2621 86.8404C44.736 89.472 0 52.6306 0 52.6306L43.4202 0L43.4202 0Z" transform="translate(132.89209 434.7063)" id="Shape#6" fill="#EE2E31" stroke="none" />
        <path d="M43.4202 0L72.367 56.5779C72.367 56.5779 65.7882 84.2089 55.2621 86.8404C44.736 89.472 0 52.6306 0 52.6306L43.4202 0L43.4202 0Z" transform="translate(132.89209 434.7063)" id="Shape#7" fill="#EE2E31" fill-opacity="0.101960786" stroke="none" />
        <path d="M39.9468 1.68402L48.4975 36.9556C48.5929 37.3488 48.5781 37.7607 48.4548 38.1461L9.6671 159.357C9.35058 160.346 8.38622 160.98 7.35271 160.878C6.31914 160.776 5.49712 159.967 5.37987 158.935L0.0140926 111.715C-0.0215519 111.402 0.0106136 111.084 0.108392 110.784L35.7111 1.52057C36.0163 0.583865 36.9063 -0.0363131 37.8907 0.0016507C38.8752 0.0396146 39.7147 0.726566 39.9468 1.68402L39.9468 1.68402L39.9468 1.68402Z" transform="translate(489.5044 570.8304)" id="Shape#8" fill="#2F2E41" stroke="none" />
        <path d="M34.21 0L42.104 30.263L7.89398 140.787L0 106.577L34.21 0L34.21 0L34.21 0Z" transform="translate(492.09595 575.493)" id="Polygon" fill="#F2F2F2" stroke="none" />
        <path d="M0.210693 60.5251C1.52646 64.4724 137.05 59.2094 138.366 57.8936C139.513 56.2458 140.483 54.4818 141.261 52.6306C142.497 49.999 143.629 47.3675 143.629 47.3675L138.366 4.76306L4.15799 0C4.15799 0 0.802734 36.1046 0.1185 52.6306C-0.0523987 56.8015 -0.0523987 59.7357 0.210693 60.5251L0.210693 60.5251L0.210693 60.5251Z" transform="translate(353.72998 679.43835)" id="Shape#9" fill="#2F2E41" stroke="none" />
        <path d="M56.578 0L59.209 36.841L0 36.841L0 0L56.578 0L56.578 0L56.578 0Z" transform="translate(418.4131 689.96497)" id="Polygon#1" fill="#000000" fill-opacity="0.101960786" stroke="none" />
        <path d="M34.21 0.0700073L34.563 0L32.894 15.86L0 15.86L0 0.0700073L34.21 0.0700073L34.21 0.0700073L34.21 0.0700073Z" transform="translate(364.46704 701.73596)" id="Polygon#2" fill="#000000" fill-opacity="0.101960786" stroke="none" />
        <path d="M0.210693 7.89459C1.52646 11.8419 137.05 6.5788 138.366 5.26306C139.513 3.6153 140.483 1.8512 141.261 0L0.1185 0C-0.0523987 4.17096 -0.0523987 7.1051 0.210693 7.89459L0.210693 7.89459L0.210693 7.89459Z" transform="translate(353.72998 732.069)" id="Shape#10" fill="#000000" fill-opacity="0.101960786" stroke="none" />
        <path d="M0 59.2094C0 26.5089 26.5089 0 59.2094 0C91.9098 0 118.419 26.5089 118.419 59.2094C118.419 91.9098 91.9098 118.419 59.2094 118.419C26.5089 118.419 0 91.9098 0 59.2094L0 59.2094Z" transform="translate(136.83936 297.86682)" id="Circle" fill="#ECDDBB" stroke="none" />
        <path d="M90.1299 51.0008C90.1299 51.0008 70.3934 85.2107 66.4461 103.631C62.4988 122.052 7.23669 66.79 7.23669 66.79L0 47.7114C0 47.7114 51.9727 23.3698 48.0254 3.63328C44.0781 -16.1032 90.1299 51.0008 90.1299 51.0008L90.1299 51.0008L90.1299 51.0008Z" transform="translate(101.97168 358.70593)" id="Shape#11" fill="#ECDDBB" stroke="none" />
        <path d="M63.1567 0L117.103 71.0513L246.048 167.102C246.048 167.102 339.467 186.839 318.415 201.312C297.363 215.785 236.838 188.154 236.838 188.154C236.838 188.154 106.577 118.419 78.9458 89.472C51.3148 60.5252 0 11.8419 0 11.8419L63.1567 0L63.1567 0Z" transform="translate(139.47119 512.33636)" id="Shape#12" fill="#ECDDBB" stroke="none" />
        <path d="M117.103 8.19987L132.892 33.1995L227.123 3.55363C247.799 -2.95113 270.471 -0.557638 288.81 10.9959C305.257 21.3575 315.783 37.8046 292.1 62.1462C244.732 110.83 213.154 84.5142 213.154 84.5142C213.154 84.5142 53.9463 159.513 27.631 122.671C1.31573 85.83 0 67.4093 0 67.4093C0 67.4093 101.314 4.2526 117.103 8.19987L117.103 8.19987L117.103 8.19987Z" transform="translate(13.157715 614.66064)" id="Shape#13" fill="#2A293A" stroke="none" />
        <path d="M138.155 11.8419C138.155 11.8419 180.26 39.4729 130.261 52.6306C80.2616 65.7882 43.4202 47.3675 43.4202 47.3675C43.4202 47.3675 0 47.3675 0 24.9995C0 2.63153 14.4734 0 14.4734 0L59.2094 6.5788C59.2094 6.5788 113.156 -7.89459 138.155 11.8419L138.155 11.8419L138.155 11.8419Z" transform="translate(189.46997 697.85913)" id="Shape#14" fill="#514F70" stroke="none" />
        <path d="M126.899 71.7346C130.929 73.5311 134.926 75.6575 139.307 76.179C143.688 76.7004 148.678 75.1708 150.751 71.276C151.871 69.1722 151.999 66.6977 152.051 64.3151C152.209 57.0899 151.687 49.2792 147.108 43.6877C144.194 40.1292 139.941 37.8859 136.924 34.4137C134.763 31.9261 133.325 28.9109 131.777 26.0023C125.911 14.985 117.225 4.39672 105.155 1.22057C100.114 -0.105728 94.8266 -0.0410004 89.6152 0.0325775L59.2179 0.46141C54.2988 0.530807 49.3039 0.611465 44.5949 2.03523C34.8109 4.99346 27.6871 13.2211 21.1627 21.0895C16.2815 26.9762 11.3874 32.9237 7.72413 39.6363C2.4719 49.4321 -0.183893 60.4098 0.00989389 71.5231C-0.0308166 74.3732 0.337164 77.2145 1.10264 79.9603C1.99813 82.4786 3.10761 84.9156 4.41892 87.2446C10.1194 98.4413 13.5042 112.427 7.08436 123.227C18.2362 118.672 29.2703 112.699 36.6267 103.16C39.9176 98.892 42.4985 93.8964 46.8843 90.7648C51.27 87.6332 58.4163 87.3616 61.2302 91.9576C62.1974 93.8169 62.6954 95.8843 62.681 97.9801C62.8865 101.43 62.8809 105.013 64.3436 108.144C65.8062 111.275 69.2904 113.801 72.6169 112.864C78.3456 111.251 77.797 102.458 82.2094 98.4644C85.5604 95.4312 90.7302 96.0111 95.0352 94.6341C100.051 93.0298 103.815 88.6845 105.959 83.8747C107.589 80.2188 107.565 70.6517 110.65 68.6719C114.518 66.189 123.314 70.1362 126.899 71.7346L126.899 71.7346L126.899 71.7346Z" transform="translate(117.72168 270.44714)" id="Shape#15" fill="#2F2E41" stroke="none" />
        <path d="M97.2716 0.527807C99.9352 -0.182887 102.74 -0.175746 105.4 0.548497C113.846 2.81602 132.78 8.81885 136.839 17.9531C142.103 29.795 160.523 48.2157 160.523 48.2157C160.523 48.2157 185.523 73.2152 180.26 90.3202C174.997 107.425 155.26 127.162 155.26 127.162C155.26 127.162 160.523 208.739 134.208 229.791C107.893 250.844 97.3665 236.37 97.3665 256.107C97.3665 275.843 15.7892 337.684 0 299.527C0 299.527 7.89459 228.475 5.26306 203.476C2.66948 178.837 6.46634 25.1111 97.2716 0.527807L97.2716 0.527807L97.2716 0.527807Z" transform="translate(0 399.6482)" id="Shape#16" fill="#EE2E31" stroke="none" />
        <path d="M61.4225 3.45644C61.4225 3.45644 141.684 62.6659 127.211 87.6654C127.211 87.6654 78.5274 111.349 68.0013 110.033C57.4752 108.718 16.6865 62.6659 6.16042 58.7185C-4.36568 54.7712 -9.62875 -16.28 61.4225 3.45644L61.4225 3.45644L61.4225 3.45644Z" transform="translate(78.04834 429.93408)" id="Shape#17" fill="#EE2E31" stroke="none" />
        <path d="M0 65C0 29.1015 29.1015 0 65 0C100.899 0 130 29.1015 130 65C130 100.899 100.899 130 65 130C29.1015 130 0 100.899 0 65L0 65Z" transform="translate(433.06372 172.45789)" id="Circle#1" fill="#F2F2F2" stroke="none" />
        <path d="M364.249 76.2195L0 76.2195L0 0L364.249 0L364.249 76.2195ZM1.60474 74.6148L362.644 74.6148L362.644 1.60458L1.60474 1.60458L1.60474 74.6148Z" transform="translate(670.6809 76.82117)" id="Shape#18" fill="#000000" fill-rule="evenodd" stroke="none" />
        <path d="M0 0L362.644 0L362.644 74.6148L0 74.6148L0 0L0 0Z" transform="translate(645.8093 92.06506)" id="Rectangle" fill="#EE2E31" stroke="none" />
        <path d="M0 5.61624C0 2.51448 2.51448 0 5.61624 0C8.718 0 11.2325 2.51448 11.2325 5.61624C11.2325 8.718 8.718 11.2325 5.61624 11.2325C2.51448 11.2325 0 8.718 0 5.61624L0 5.61624Z" transform="translate(410.94873 9.6276245)" id="Circle#2" fill="#EE2E31" stroke="none" />
        <path d="M0 5.61624C0 2.51448 2.51448 0 5.61624 0C8.718 0 11.2325 2.51448 11.2325 5.61624C11.2325 8.718 8.718 11.2325 5.61624 11.2325C2.51448 11.2325 0 8.718 0 5.61624L0 5.61624Z" transform="translate(430.2041 9.6276245)" id="Circle#3" fill="#EE2E31" stroke="none" />
        <path d="M0 5.61624C0 2.51448 2.51448 0 5.61624 0C8.718 0 11.2325 2.51448 11.2325 5.61624C11.2325 8.718 8.718 11.2325 5.61624 11.2325C2.51448 11.2325 0 8.718 0 5.61624L0 5.61624Z" transform="translate(449.45947 9.6276245)" id="Circle#4" fill="#EE2E31" stroke="none" />
        <path d="M675.545 439L0 439L0 0L675.545 0L675.545 439ZM1.60474 437.397L673.94 437.397L673.94 1.60217L1.60474 1.60217L1.60474 437.397Z" transform="translate(400.5188 0)" id="Shape#19" fill="#000000" fill-rule="evenodd" stroke="none" />
        <path d="M0 0L673.94 0L673.94 1.60462L0 1.60462L0 0L0 0Z" transform="translate(401.32104 24.338043)" id="Rectangle#1" fill="#000000" stroke="none" />
        <path d="M6.41849 12.837C2.87366 12.837 0 9.9633 0 6.41847C0 2.87365 2.87366 0 6.41849 0C9.96332 0 12.837 2.87366 12.837 6.41848C12.8329 9.96152 9.96167 12.8328 6.41855 12.837L6.41849 12.837ZM6.4183 1.60461C3.75976 1.60472 1.60461 3.75993 1.60461 6.41848C1.60464 9.0771 3.75986 11.2323 6.41849 11.2323C9.07712 11.2323 11.2324 9.07709 11.2324 6.41847C11.2292 3.76094 9.07565 1.60759 6.4183 1.60461Z" transform="translate(411.75098 6.4184875)" id="Shape#20" fill="#3F3D56" fill-rule="evenodd" stroke="none" />
        <path d="M6.41849 12.837C2.87366 12.837 0 9.9633 0 6.41847C0 2.87365 2.87366 0 6.41849 0C9.96332 0 12.837 2.87366 12.837 6.41848C12.8329 9.96152 9.96167 12.8328 6.41855 12.837L6.41849 12.837ZM6.4183 1.60461C3.75976 1.60472 1.60461 3.75993 1.60461 6.41848C1.60464 9.0771 3.75986 11.2323 6.41849 11.2323C9.07712 11.2323 11.2324 9.07709 11.2324 6.41847C11.2292 3.76094 9.07565 1.60759 6.4183 1.60461Z" transform="translate(431.0066 6.4184875)" id="Shape#21" fill="#3F3D56" fill-rule="evenodd" stroke="none" />
        <path d="M6.41866 12.8371L6.41842 12.8371C3.8225 12.8371 1.48223 11.2733 0.488789 8.87493C-0.504711 6.47652 0.0444525 3.7158 1.88009 1.88013C3.71578 0.0444478 6.47646 -0.504693 8.8749 0.488761C11.2733 1.48222 12.8371 3.82263 12.8371 6.41866C12.8329 9.96195 9.9617 12.833 6.41866 12.8371ZM6.41856 1.6048C4.47154 1.60479 2.71623 2.77764 1.97111 4.57646C1.22605 6.37527 1.63786 8.44581 3.01463 9.82256C4.3914 11.1993 6.46189 11.6112 8.26072 10.8661C10.0595 10.121 11.2324 8.36568 11.2324 6.41866C11.2294 3.76166 9.07621 1.60808 6.41892 1.6048L6.41856 1.6048Z" transform="translate(450.26172 6.418274)" id="Shape#22" fill="#3F3D56" fill-rule="evenodd" stroke="none" />
        <path d="M0 0L1.60462 0L1.60462 414.346L0 414.346L0 0L0 0Z" transform="translate(612.10913 25.14035)" id="Rectangle#2" fill="#000000" stroke="none" />
        <path d="M0 0L117.94 0L117.94 16.0462L0 16.0462L0 0L0 0Z" transform="translate(688.7329 228.85889)" id="Rectangle#3" fill="#F2F2F2" stroke="none" />
        <path d="M0 0L117.94 0L117.94 16.0462L0 16.0462L0 0L0 0Z" transform="translate(874.06665 228.85889)" id="Rectangle#4" fill="#F2F2F2" stroke="none" />
        <path d="M119.544 17.6508L0 17.6508L0 0L119.544 0L119.544 17.6508ZM1.60461 16.0462L117.94 16.0462L117.94 1.60461L1.60461 1.60461L1.60461 16.0462Z" transform="translate(694.3491 220.03345)" id="Shape#23" fill="#3F3D56" fill-rule="evenodd" stroke="none" />
        <path d="M0 0L117.94 0L117.94 16.0462L0 16.0462L0 0L0 0Z" transform="translate(688.7329 353.21692)" id="Rectangle#5" fill="#F2F2F2" stroke="none" />
        <path d="M119.544 17.6508L0 17.6508L0 0L119.544 0L119.544 17.6508ZM1.60461 16.0462L117.94 16.0462L117.94 1.60464L1.60461 1.60464L1.60461 16.0462Z" transform="translate(694.3491 344.39148)" id="Shape#24" fill="#3F3D56" fill-rule="evenodd" stroke="none" />
        <path d="M0 0L303.273 0L303.273 16.0462L0 16.0462L0 0L0 0Z" transform="translate(689.13403 289.4333)" id="Rectangle#6" fill="#F2F2F2" stroke="none" />
        <path d="M304.878 17.6508L0 17.6508L0 0L304.878 0L304.878 17.6508ZM1.60461 16.0462L303.273 16.0462L303.273 1.60461L1.60461 1.60461L1.60461 16.0462Z" transform="translate(694.75024 282.21252)" id="Shape#25" fill="#3F3D56" fill-rule="evenodd" stroke="none" />
        <path d="M119.544 17.6508L0 17.6508L0 0L119.544 0L119.544 17.6508ZM1.60455 16.0462L117.94 16.0462L117.94 1.60461L1.60461 1.60461L1.60455 16.0462Z" transform="translate(879.6826 220.03345)" id="Shape#26" fill="#3F3D56" fill-rule="evenodd" stroke="none" />
        <path d="M66 132C29.5492 132 0 102.451 0 66C0 29.5492 29.5492 0 66 0C102.451 0 132 29.5492 132 66C131.96 102.431 102.436 131.957 66.0025 132L66 132ZM66 2C30.6537 2 2 30.6538 2 66C2 101.346 30.6537 130 66 130C101.346 130 130 101.346 130 66C129.961 30.6731 101.332 2.04156 66.0027 2L66 2Z" transform="translate(443.06372 153.45795)" id="Shape#27" fill="#679289" fill-rule="evenodd" stroke="none" />
        <path d="M0 0L283 0L283 2L0 2L0 0L0 0Z" transform="translate(748.0637 744.4579)" id="Rectangle#7" fill="#3F3D56" stroke="none" />
      </g>
    </g>
  </g>
</svg>